<svg xmlns="http://www.w3.org/2000/svg" width="320" height="200" viewBox="0 0 320 200">
  <rect width="320" height="200" fill="hsl(220,14%,10%)"/>
  <rect x="0" y="0" width="70" height="200" fill="hsl(220,18%,8%)"/>
  <rect x="0" y="0" width="320" height="3" fill="hsl(221,83%,53%)"/>
  <text x="10" y="26" font-family="Inter,sans-serif" font-size="10" font-weight="700" fill="hsl(0,0%,96%)">ТехноКорп</text>
  <text x="10" y="50" font-family="Inter,sans-serif" font-size="8" fill="hsl(0,0%,65%)">ТЕМЫ</text>
  <rect x="6" y="58" width="58" height="16" rx="3" fill="hsl(221,83%,53%)"/>
  <text x="35" y="70" font-family="Inter,sans-serif" font-size="8" fill="hsl(0,0%,98%)" text-anchor="middle">Базовые угрозы</text>
  <text x="35" y="88" font-family="Inter,sans-serif" font-size="8" fill="hsl(0,0%,45%)" text-anchor="middle">Политика паролей</text>
  <text x="35" y="104" font-family="Inter,sans-serif" font-size="8" fill="hsl(0,0%,45%)" text-anchor="middle">Инциденты</text>
  <rect x="82" y="16" width="228" height="60" rx="8" fill="hsl(220,13%,16%)" stroke="hsl(220,13%,26%)" stroke-width="1"/>
  <text x="96" y="35" font-family="Inter,sans-serif" font-size="9" font-weight="600" fill="hsl(221,83%,53%)">ВОПРОС 2 ИЗ 4</text>
  <text x="96" y="51" font-family="Inter,sans-serif" font-size="10" fill="hsl(0,0%,96%)">Сотрудник получил подозрительное письмо.</text>
  <text x="96" y="66" font-family="Inter,sans-serif" font-size="10" fill="hsl(0,0%,96%)">Что следует сделать?</text>
  <rect x="82" y="86" width="228" height="18" rx="5" fill="hsl(220,13%,16%)" stroke="hsl(220,13%,26%)" stroke-width="1"/>
  <rect x="82" y="110" width="228" height="18" rx="5" fill="hsl(221,83%,53%)"/>
  <text x="196" y="123" font-family="Inter,sans-serif" font-size="9" fill="hsl(0,0%,98%)" text-anchor="middle">Сообщить в отдел ИБ</text>
  <rect x="82" y="134" width="228" height="18" rx="5" fill="hsl(220,13%,16%)" stroke="hsl(220,13%,26%)" stroke-width="1"/>
  <rect x="82" y="158" width="228" height="18" rx="5" fill="hsl(220,13%,16%)" stroke="hsl(220,13%,26%)" stroke-width="1"/>
  <rect x="262" y="178" width="48" height="14" rx="4" fill="hsl(221,83%,53%)"/>
  <text x="286" y="189" font-family="Inter,sans-serif" font-size="8" font-weight="600" fill="hsl(0,0%,98%)" text-anchor="middle">Принять</text>
</svg>
